<svg xmlns="http://www.w3.org/2000/svg" viewBox="0 0 22 25.5"><path d="M17.533,9.563a11.156,11.156,0,0,0-3.889,1.594l-.175-.239a23.189,23.189,0,0,1,.877-6.136c-.335.191-1.594,1.259-3.076,2.359A10.662,10.662,0,0,1,11.158,0C4.162,5.02,0,12.208,0,16.7c0,3.506-.51,8.8,7.969,8.8C21.167,25.5,14.346,15.938,17.533,9.563ZM8.927,22.982c-9.563.271-3.443-9.052-4.462-7.172-.128.255-.829,2.438,2.55,4.239-1.658-2.072,1.355-4.558,2.55-5.706a16.463,16.463,0,0,0,1.179,5.69s1.944-1.132,3.331-5.212C15.207,20.049,14.346,22.838,8.927,22.982Z" fill="#ccc"/></svg>