<svg xmlns="http://www.w3.org/2000/svg" width="21.496" height="21.496" viewBox="0 0 21.496 21.496"><path d="M9.608,17.779a6.322,6.322,0,1,0,6.322-6.323,6.322,6.322,0,0,0-6.322,6.323ZM15.931,7.031l-1.778,3.557H17.71L15.931,7.031Zm7.6,3.125-3.773,1.257,2.514,2.515,1.258-3.772ZM12.106,11.413,8.334,10.156l1.257,3.773ZM8.713,15.974,5.156,17.753l3.557,1.778V15.974ZM23.1,19.584l3.557-1.778L23.1,16.029v3.556Zm-7.165,8.943,1.778-3.557H14.151l1.779,3.557Zm3.825-4.382L23.528,25.4,22.27,21.63l-2.515,2.515ZM8.334,25.4l3.773-1.257L9.592,21.631,8.335,25.4Z" transform="translate(-5.156 -7.031)" fill="#ccc"/></svg>