<?xml version="1.0" encoding="UTF-8"?><svg id="a" xmlns="http://www.w3.org/2000/svg" viewBox="0 0 19.02 20.48"><path d="M17.55,1.46h-1.46v2.2c0,.4-.32.73-.72.73h-2.94c-.4,0-.73-.32-.73-.72h0V1.46h-4.39v2.2c0,.4-.32.73-.72.73h-2.94c-.4,0-.73-.32-.73-.72h0V1.46h-1.46c-.81,0-1.46.66-1.46,1.46v16.1c0,.81.66,1.46,1.46,1.46h16.1c.81,0,1.46-.66,1.46-1.46V2.93c0-.81-.66-1.46-1.46-1.46h-.01ZM17.55,19.03H1.45V5.86h16.1s0,13.17,0,13.17ZM5.85,2.93h-1.46V0h1.46v2.93ZM14.63,2.93h-1.46V0h1.46v2.93ZM7.31,8.78h-1.46v-1.46h1.46v1.46ZM10.23,8.78h-1.46v-1.46h1.46v1.46ZM13.16,8.78h-1.46v-1.46h1.46v1.46ZM16.09,8.78h-1.46v-1.46h1.46v1.46ZM4.38,11.71h-1.46v-1.46h1.46v1.46ZM7.31,11.71h-1.46v-1.46h1.46v1.46ZM10.23,11.71h-1.46v-1.46h1.46v1.46ZM13.16,11.71h-1.46v-1.46h1.46v1.46ZM16.09,11.71h-1.46v-1.46h1.46v1.46ZM4.38,14.64h-1.46v-1.46h1.46v1.46ZM7.31,14.64h-1.46v-1.46h1.46v1.46ZM10.23,14.64h-1.46v-1.46h1.46v1.46ZM13.16,14.64h-1.46v-1.46h1.46v1.46ZM16.09,14.64h-1.46v-1.46h1.46v1.46ZM4.38,17.56h-1.46v-1.46h1.46v1.46ZM7.31,17.56h-1.46v-1.46h1.46v1.46ZM10.23,17.56h-1.46v-1.46h1.46v1.46ZM13.16,17.56h-1.46v-1.46h1.46v1.46Z" style="fill:#ccc; fill-rule:evenodd; stroke-width:0px;"/></svg>